PathFileType	4	(X/Y/Z)	Patient4_TMGait_0pt8_01_left_18.trc.trc
DataRate	CameraRate	NumFrames	NumMarkers	Units	OrigDataRate	OrigDataStartFrame	OrigNumFrames
89.171974522293	89.171974522293	5	33	mm	89.171974522293	1	       141
Frame#	Time	Sacral			L.Shoulder			Chest			R.Shoulder			Neck			R.ASIS			L.ASIS			R.Thigh.Superior			R.Thigh.Lateral			R.Thigh.Inferior			R.Patella			L.Thigh.Superior			L.Thigh.Lateral			L.Thigh.Inferior			L.Patella			L.Shank.Superior			L.Shank.Lateral			L.Shank.Inferior			R.Shank.Superior			R.Shank.Lateral			R.Shank.Inferior			R.Heel			R.Midfoot.Superior			R.Midfoot.Lateral			R.Toe			L.Heel			L.Midfoot.Lateral			L.Midfoot.Superior			L.Toe			L.Elbow			L.Wrist			R.Elbow			R.Wrist			
		X1	Y1	Z1	X2	Y2	Z2	X3	Y3	Z3	X4	Y4	Z4	X5	Y5	Z5	X6	Y6	Z6	X7	Y7	Z7	X8	Y8	Z8	X9	Y9	Z9	X10	Y10	Z10	X11	Y11	Z11	X12	Y12	Z12	X13	Y13	Z13	X14	Y14	Z14	X15	Y15	Z15	X16	Y16	Z16	X17	Y17	Z17	X18	Y18	Z18	X19	Y19	Z19	X20	Y20	Z20	X21	Y21	Z21	X22	Y22	Z22	X23	Y23	Z23	X24	Y24	Z24	X25	Y25	Z25	X26	Y26	Z26	X27	Y27	Z27	X28	Y28	Z28	X29	Y29	Z29	X30	Y30	Z30	X31	Y31	Z31	X32	Y32	Z32	X33	Y33	Z33	

1	19.410000000000	916.998784224005	1005.092307842952	485.028187927817	1067.752660959369	1428.300398645823	279.016998147958	1182.811241505975	1369.068262611051	436.549080270109	1106.493992323255	1442.291520637985	614.431915591523	1058.472985479787	1494.798351467137	434.397069671996	1149.481799723437	946.278882154557	589.464496426387	1119.433483255642	958.735546834446	316.959957941325	1185.371518655485	739.453041791729	560.217164294129	1098.260082154741	630.607249051215	615.084293223903	1173.319361335048	577.841438122356	534.467090265199	1168.671848459745	487.574653917021	537.586538234321	1201.353270225398	771.353664404817	346.081627677543	1151.908768641716	647.539706048488	267.360803417401	1256.737288650225	581.476476559765	325.649620489905	1265.380419674076	490.470476738520	317.274045309737	1192.560610341944	428.150979830752	309.916103651093	1044.856947693808	400.567907579337	269.440637108162	1025.399096853730	269.751483786074	318.834861615747	1134.393986456518	400.544677142580	541.175272943707	1055.003418666353	299.762520706948	596.223783653346	1092.701719428628	204.483192575585	531.588268121534	950.322131416015	43.916362242702	491.795941369329	1120.113764826466	96.245365367365	536.502064073490	1029.139814758235	37.898468948679	571.613709163721	1237.827595518426	40.545827350090	573.829565200463	835.187949949372	226.561532153927	370.986108712407	876.808500593234	174.648566456071	284.633565636317	984.060695987586	165.855746035494	295.923241659574	1039.452817695100	42.905783029505	258.734412296767	1071.402743222886	1067.054930025058	188.984341675850	1195.166544563806	836.056717043607	181.870532272094	1123.455611259521	1094.436705051558	741.886601133150	1327.990554309194	938.728370785179	704.084379048672	
2	19.421214285714	915.984005439314	1006.214245080494	486.729512840479	1066.648169993199	1428.341679407287	279.548642148361	1182.821680451464	1369.036696958813	436.194244810033	1108.444710604071	1443.233331304231	614.467519878370	1058.847384636048	1495.230071686804	434.752708343823	1148.680986973943	946.197322917387	589.844347614290	1117.326809395413	959.618096125313	317.467151767706	1181.208338979850	738.639904604579	559.731908241463	1093.185232607801	630.800135873703	615.664071470372	1166.549337393614	577.114416052014	534.486530831268	1160.616921429653	487.243417947439	537.687044654736	1201.535997821084	775.587279249482	346.856605287431	1155.121379572913	651.084166927222	267.798548959782	1260.799465121778	587.129586857273	325.942321118814	1272.006326855893	496.944488779750	317.075665874225	1202.314504450222	432.281577717992	309.699314486396	1056.656476702735	396.648084625445	270.167913017276	1045.336943214361	265.145221925492	318.759928009459	1126.228630153002	400.474241587696	541.487447848782	1046.580531389318	299.999053630976	596.695304626695	1083.844537340265	204.559696348316	531.863785311365	940.831763580144	44.304111121239	491.929198348631	1110.806114850323	96.398555718326	536.862990639125	1019.712930447815	38.006812940846	571.728739924607	1228.360775692116	40.399573153151	573.960181014772	859.255420526325	209.563060601790	371.891555934262	903.332669779384	161.994461774187	284.621354523968	1010.348988245662	160.459888429844	295.338857500287	1073.323193400424	42.946699687690	256.066550380384	1063.304974110979	1066.756733603764	191.223513965598	1170.015585003274	830.266060265143	183.952058646413	1135.678331690493	1097.474316627991	742.428035427323	1349.155650295886	962.250109053408	699.603050354828	
3	19.432428571429	914.976106077998	1007.307499221860	488.380043473099	1065.584579602485	1428.371669807544	280.063414582831	1182.846890502135	1368.981266457628	435.836912964626	1110.381783906993	1444.139965812727	614.490347195734	1059.230798420992	1495.640345982750	435.082529972550	1147.875276698640	946.093538228744	590.219152901517	1115.255831418739	960.454401567237	317.956559457415	1177.104459777468	737.829638274685	559.268262190172	1088.169936166818	630.984489721883	616.227820167854	1159.874858948285	576.392526283069	534.513865475295	1152.675065603131	486.925523841085	537.796012419491	1201.666754296302	779.688390613623	347.599884363949	1158.138816561507	654.485013427920	268.228614048046	1264.651695657771	592.590768039762	326.230919334376	1278.340741279880	503.244268190891	316.891332660522	1211.811817586379	436.301646388380	309.498412624016	1068.329386369235	392.614630312939	270.837218079543	1065.148439502978	260.542601645543	318.657217288410	1118.174646839939	400.404885947716	541.794307594710	1038.275307203644	300.232309145764	597.154604999537	1075.102360175726	204.639602099520	532.136909761507	931.477944090411	44.692031998637	492.077191418378	1101.621118814825	96.545523225452	537.211836599882	1010.410639898189	38.118272357036	571.845201767117	1219.019363748708	40.256013074043	574.084901483677	883.357382387020	192.677785945609	372.676182636269	929.843027320969	149.420158044178	284.538859667983	1036.520383635855	155.100216775908	294.747327685108	1106.982087773422	43.071473326299	253.500203238930	1055.172425437567	1066.499189975533	193.338271594182	1145.340636865271	824.809474941497	186.039289018867	1147.761604616997	1100.510274729006	742.912098051361	1369.751364596632	985.641870756555	695.151365141163	
4	19.443642857143	913.987730986977	1008.334467744065	489.930693737105	1064.603890019708	1428.370231764345	280.540915941830	1182.906553648819	1368.862002738425	435.464744027734	1112.306914573153	1444.963638198450	614.477473858772	1059.639231356435	1495.993322938955	435.362324078405	1147.058968973580	945.931749882978	590.574805792762	1113.252624062266	961.187439430429	318.402685787033	1173.079245492092	737.001406466314	558.851207356812	1083.210271696985	631.144110733774	616.760508097004	1153.315987295177	575.663164835250	534.559635807137	1144.871673150149	486.619017080260	537.919971864383	1201.668080768895	783.498681121679	348.285270431223	1160.763971939159	657.585801303184	268.627593747261	1268.063693832185	597.648501460869	326.527044181025	1284.098585872006	509.213535302720	316.762388888843	1220.839864191490	440.125823072746	309.347204317620	1079.896434583722	388.351675195975	271.362208897808	1084.883527810848	255.987928729920	318.504172849907	1110.250160254637	400.329467633676	542.089503984043	1030.103007301720	300.455568746133	597.590081381036	1066.483109494156	204.719492643798	532.402956772030	922.278933547467	45.075473338305	492.250695588270	1092.564920385466	96.678767756259	537.536168467234	1001.242067363621	38.233692394955	571.964429492349	1209.813651875144	40.118769999370	574.199395659784	907.789266356516	176.006894511055	373.177547608030	956.635868330572	137.032019524367	284.311424593470	1062.715228956616	149.881070460293	294.162385017133	1140.509153567093	43.505360832056	251.229035376002	1046.861581007656	1066.367912962684	195.229662015363	1121.394202143791	820.022105882692	188.158558694428	1159.691676018861	1103.588176359056	743.262539201843	1389.269096789381	1008.987384407880	690.711794181635	
5	19.454857142857	913.034136738521	1009.261360161511	491.341183929727	1063.740777438739	1428.318740701836	280.962941198427	1183.017501682439	1368.642475330578	435.065125727651	1114.223042433141	1445.661080512531	614.407544102127	1060.085937399825	1496.256780405180	435.571200962598	1146.229403603639	945.681491449234	590.891634876444	1111.345391228071	961.768804674192	318.781728488169	1169.142350026547	736.132131930290	558.504969814970	1078.289407346744	631.263644545368	617.250713066635	1146.874639595462	574.911645858748	534.635143122567	1137.210890170164	486.316287857830	538.062556255560	1201.471448116596	786.879409364433	348.895016610222	1162.842736862965	660.256628327864	268.975005169995	1270.841100876901	602.119938551212	326.849250911067	1289.056125415260	514.726922534935	316.733531118346	1229.235391282017	443.691824756477	309.284971572175	1091.416054103253	383.784207395110	271.657352331318	1104.606892218656	251.549736599033	318.288022590979	1102.451899605239	400.239408470944	542.366823535666	1022.054463214750	300.661854139266	597.992600626472	1057.971680113710	204.793532453397	532.655892840757	913.221586802279	45.447159443750	492.454025559890	1083.617294328193	96.791822930356	537.825509529747	992.190142617982	38.352370813375	572.086279519497	1200.728439786262	39.991706108387	574.300967754695	932.817874929574	159.676829116048	373.240390425615	984.004680117030	124.966087546782	283.873403767719	1089.086589111420	144.932550841339	293.609316907379	1174.008117675445	44.484102773727	249.459995061434	1038.241228630880	1066.448299028481	196.826825233300	1098.340597071998	816.159009729565	190.337862208034	1171.480942500877	1106.751486091820	743.414360252981	1407.304988493813	1032.374785018352	686.267613263358	
